<?xml version="1.0"?>
<svg width="144.515" height="144.515" xmlns="http://www.w3.org/2000/svg" xmlns:svg="http://www.w3.org/2000/svg">

 <g class="layer">
  <title>Layer 1</title>
  <g data-name="Ebene 2" id="Ebene_2">
   <g id="Logos">
    <path d="m134.86,36.4l-0.67,-1.15a72,72 0 0 0 -8,-10.84l-2.19,-2.47a72.16,72.16 0 0 0 -121.39,31.1a56.07,56.07 0 0 0 -2.32,12.8c-0.19,2.2 -0.29,4.31 -0.29,6.41a72.21,72.21 0 1 0 134.86,-35.85zm-62.65,-25.87a61.77,61.77 0 0 1 46.05,20.69a43.19,43.19 0 0 1 -32.86,71.22l-1.52,0a23.3,23.3 0 1 1 17,-40.21c0.47,0.45 1.32,1.4 2.06,2.28l9.91,-4.35a56.25,56.25 0 0 0 -15.8,-30.75a56.91,56.91 0 0 0 -41.6,-16.55a61.71,61.71 0 0 1 16.76,-2.33zm-11,13a46.39,46.39 0 0 1 36.63,24.36a34,34 0 0 0 -46.7,28.07l-0.14,0l0,6.28l0.16,0a33.65,33.65 0 0 0 0.65,4.14a43.11,43.11 0 0 1 9.37,-62.87l0.03,0.02zm-50.48,43.34a61,61 0 0 1 1.94,-10.83a46.15,46.15 0 0 1 31.23,-30.88a53.72,53.72 0 0 0 31.52,86.88a46.28,46.28 0 0 1 -64.69,-45.17zm61.48,67.09a61.75,61.75 0 0 1 -35.54,-11.33a56.83,56.83 0 0 0 57.73,-10.46a53.73,53.73 0 0 0 38.27,-27.51a61.82,61.82 0 0 1 -60.46,49.3z" data-name="Path 245" id="Path_245"/>
   </g>
  </g>
 </g>
</svg>