<?xml version="1.0" encoding="UTF-8"?>
<svg xmlns="http://www.w3.org/2000/svg" xmlns:xlink="http://www.w3.org/1999/xlink" version="1.1" id="Layer_1" x="0px" y="0px" viewBox="0 0 1080 1080" style="enable-background:new 0 0 1080 1080;" xml:space="preserve"> <style type="text/css"> .st0{fill:#59C911;} </style> <g id="Page-1"> <g> <g id="Green"> <path id="Fill-3" class="st0" d="M391.4,467.6c3.1-6.6,8.8-9.3,17.2-9.3h61.8c0,0,5.3,0,10.6,2.6c6.6,3.1,9.3,8.8,9.3,17.2 c0,6.2,4.9,11,11,11c6.2,0,11-4.9,11-11c0-16.8-7.5-29.6-21.6-36.6c-9.7-4.9-19.4-4.9-20.3-4.9h-61.8c-16.8,0-29.6,7.5-36.6,21.2 c-4.9,9.7-4.9,19.4-4.9,20.3v123.6c0,16.8,7.5,30,21.2,36.6c9.7,4.9,19.4,4.9,20.3,4.9h61.8c16.8,0,30-7.5,36.6-21.6 c4.9-9.7,4.9-19.4,4.9-20.3v-61.8c0-6.2-4.9-11-11-11h-41.1c-3.1,0-5.7,1.3-7.5,3.1l-10.2,10.2c-4.4,4.4-4.4,11,0,15.5 s11,4.4,15.5,0l7.1-7.1h25.6v51.7c0,0,0,5.3-2.6,10.6c-3.1,6.6-8.8,9.3-17.2,9.3h-61.8c0,0-5.3,0-10.6-2.6 c-6.6-3.1-9.3-8.8-9.3-17.2V478.2C388.8,478.2,389.2,472.9,391.4,467.6"/> <path id="Fill-5" class="st0" d="M307.1,579.3H205.6v-37.1l37.5-83.9H270l37.5,83.9L307.1,579.3L307.1,579.3z M286.8,442.9 c-1.8-4-5.7-6.6-10.2-6.6h-41.1c-4.4,0-8.4,2.6-10.2,6.6l-40.6,92.7c-0.4,1.3-0.9,3.1-0.9,4.4v92.7c0,6.2,4.9,11,11,11 s11-4.9,11-11v-31.3h101.5v31.3c0,6.2,4.9,11,11,11s11-4.9,11-11V540c0-1.3-0.4-3.1-0.9-4.4L286.8,442.9z"/> <path id="Fill-7" class="st0" d="M144.7,436.7H21.5c-6.2,0-11,4.9-11,11s4.9,11,11,11h112.6v25.2L14.4,582.8 c-2.6,2.2-4,5.3-4,8.4v41.1c0,6.2,4.9,11,11,11h123.2c6.2,0,11-4.9,11-11c0-6.2-4.9-11-11-11H32.5v-25.2l119.2-99.3 c2.6-2.2,4-5.3,4-8.4v-41.1c0-3.1-1.3-5.7-3.1-7.5C150.4,437.6,147.7,436.7,144.7,436.7"/> <path id="Fill-9" class="st0" d="M1047.9,601.4c0,0.4-0.4,6.2-3.1,11c-3.1,6.2-8.8,8.8-17.2,8.8h-61.8c0,0-5.3,0-10.6-2.6 c-6.6-3.1-9.3-8.8-9.3-17.2V478.2c0-0.4,0-5.7,3.1-11c3.1-6.2,8.8-8.8,16.8-8.8h61.8c0.4,0,6.2,0,11,3.1 c6.2,3.1,8.8,8.4,8.8,16.8L1047.9,601.4L1047.9,601.4z M1048.3,441.6c-9.7-4.9-19.4-4.9-20.3-4.9h-61.8 c-16.8,0-29.6,7.5-36.6,21.2c-4.9,9.7-4.9,19.4-4.9,20.3v123.6c0,16.8,7.5,30,21.2,36.6c9.7,4.9,19.4,4.9,20.3,4.9h61.8 c16.8,0,30-7.5,36.6-21.6c4.9-9.7,4.9-19.4,4.9-20.3V477.8C1070,461.4,1062,448.6,1048.3,441.6L1048.3,441.6z"/> <path id="Fill-11" class="st0" d="M685.5,458.3c6.2,0,11-4.9,11-11s-4.9-11-11-11H562.3c-6.2,0-11,4.9-11,11v185.4 c0,6.2,4.9,11,11,11h123.2c6.2,0,11-4.9,11-11c0-6.2-4.9-11-11-11H572.9V551h102c6.2,0,11-4.9,11-11s-4.9-11-11-11h-102v-70.6 H685.5z"/> <path id="Fill-13" class="st0" d="M870,436.7c-6.2,0-11,4.9-11,11v149.2L755.6,442c-2.6-4-7.5-5.7-12.4-4.4 c-4.4,1.3-7.9,5.7-7.9,10.6v184.5c0,6.2,4.9,11,11,11s11-4.9,11-11V483.5l103.3,155c2.6,4,7.5,5.7,12.4,4.4 c4.4-1.3,7.5-5.7,7.5-10.6v-185C880.6,441.6,875.7,436.7,870,436.7"/> </g> </g> </g> </svg>